<?xml version="1.0" encoding="iso-8859-1"?>
<!-- Generator: Adobe Illustrator 18.1.1, SVG Export Plug-In . SVG Version: 6.00 Build 0)  -->
<svg xmlns="http://www.w3.org/2000/svg" xmlns:xlink="http://www.w3.org/1999/xlink" version="1.1" id="Capa_1" x="0px" y="0px" viewBox="0 0 318.568 318.568" style="enable-background:new 0 0 318.568 318.568;" xml:space="preserve" width="512px" height="512px">
<g>
	<path d="M282.354,90.237c-0.025-0.024-0.756-0.684-1.653-1.397c0.007-0.417,0.013-0.829,0.013-1.236   c0-41.594-33.84-75.432-75.433-75.432c-1.224,0-2.459,0.032-3.728,0.098C189.274,4.232,175.093,0,160.335,0   c-37.702,0-69.392,27.943-74.649,64.656c-22.81,8.123-38.265,29.68-38.265,54.381c0,2.538,0.179,5.146,0.53,7.75   c0.292,2.165,1.38,4.047,2.942,5.375l0.844,8.272c-22.93,39.368-46.41,91.817-29.42,119.938   c7.203,11.922,20.221,17.95,38.734,17.95c0.539,0,3.192-0.055,3.984-0.09c4.836-0.1,55.033-3.125,99.4-82.706   c-2.631-2.82-4.252-6.592-4.252-10.752c0-8.716,7.066-15.782,15.782-15.782c8.717,0,15.783,7.066,15.783,15.782   c0,8.043-6.021,14.667-13.798,15.645c-45.502,80.454-94.065,91.801-110.586,93.227l1.453,14.25   c0.559,6.046,5.631,10.673,11.705,10.673h161.283c6.074,0,11.146-4.627,11.706-10.673l12.504-122.56   c21.054-8.108,36.04-28.539,36.04-52.415C302.057,116.325,294.795,100.842,282.354,90.237z M38.085,250.845   c-7.651-12.664-1.144-41.473,16.973-77.853l8.859,86.843C50.698,260.37,42.011,257.342,38.085,250.845z M245.901,171.939   c-13.929,0-24.895-3.934-32.594-11.693c-13.291-13.398-13.28-34.298-13.278-34.478c0.034-2.294-0.854-4.506-2.464-6.141   c-1.61-1.634-3.809-2.555-6.104-2.555H64.602c0.855-17.981,13.354-33.243,30.988-37.51c1.128-0.236,17.002-3.262,29.596,11.433   c1.695,1.978,4.095,2.993,6.51,2.993c1.973,0,3.956-0.678,5.572-2.063c3.593-3.08,4.009-8.488,0.93-12.081   c-11.534-13.457-25.094-17.064-34.605-17.687c6.037-25.893,29.324-45.02,56.742-45.02c12.219,0,23.931,3.756,33.865,10.861   c1.669,1.194,3.714,1.752,5.756,1.564c1.893-0.171,3.635-0.254,5.325-0.254c29.204,0,53.457,21.588,57.649,49.643   c-9.946-3.61-22.943-5.37-37.125,0.37c-4.386,1.775-6.503,6.771-4.728,11.157c1.776,4.386,6.772,6.502,11.157,4.727   c14.631-5.923,27.793,0.317,34.298,4.525c0.222,0.179,0.44,0.358,0.683,0.516c11.086,7.247,17.705,19.462,17.705,32.676   C284.921,154.435,267.417,171.939,245.901,171.939z" fill="#D80027"/>
</g>
<g>
</g>
<g>
</g>
<g>
</g>
<g>
</g>
<g>
</g>
<g>
</g>
<g>
</g>
<g>
</g>
<g>
</g>
<g>
</g>
<g>
</g>
<g>
</g>
<g>
</g>
<g>
</g>
<g>
</g>
</svg>
