<?xml version="1.0" encoding="iso-8859-1"?>
<!-- Generator: Adobe Illustrator 19.0.0, SVG Export Plug-In . SVG Version: 6.00 Build 0)  -->
<svg xmlns="http://www.w3.org/2000/svg" xmlns:xlink="http://www.w3.org/1999/xlink" version="1.1" id="Layer_1" x="0px" y="0px" viewBox="0 0 512 512" style="enable-background:new 0 0 512 512;" xml:space="preserve" width="512px" height="512px">
<g>
	<g>
		<path d="M495.285,239.069h-9.463v-40.619c0-9.231-7.484-16.715-16.715-16.715H441.81v-2.342c0-9.231-7.484-16.715-16.715-16.715    h-48.47c-9.231,0-16.715,7.484-16.715,16.715v59.674H152.09v-59.241c0-9.231-7.484-16.715-16.715-16.715h-48.47    c-9.231,0-16.715,7.484-16.715,16.715v1.908H42.893c-9.231,0-16.715,7.484-16.715,16.715v40.619h-9.464    C7.484,239.068,0,246.552,0,255.783s7.484,16.715,16.715,16.715h9.464v40.619c0,9.231,7.484,16.715,16.715,16.715h27.298v2.776    c0,9.231,7.484,16.715,16.715,16.715h48.47c9.231,0,16.715-7.484,16.715-16.715v-60.109h207.82v59.674    c0,9.231,7.484,16.715,16.715,16.715h48.47c9.231,0,16.715-7.484,16.715-16.715v-2.341h27.298c9.231,0,16.715-7.484,16.715-16.715    v-40.619h9.463c9.231,0,16.715-7.484,16.715-16.715S504.517,239.069,495.285,239.069z" fill="#D80027"/>
	</g>
</g>
<g>
</g>
<g>
</g>
<g>
</g>
<g>
</g>
<g>
</g>
<g>
</g>
<g>
</g>
<g>
</g>
<g>
</g>
<g>
</g>
<g>
</g>
<g>
</g>
<g>
</g>
<g>
</g>
<g>
</g>
</svg>
